<?xml version="1.0" encoding="utf-8"?>
<!-- Generator: Adobe Illustrator 24.0.1, SVG Export Plug-In . SVG Version: 6.00 Build 0)  -->
<svg version="1.1" id="Layer_1" xmlns="http://www.w3.org/2000/svg" xmlns:xlink="http://www.w3.org/1999/xlink" x="0px" y="0px"
	 viewBox="0 0 400 400" style="enable-background:new 0 0 400 400;" xml:space="preserve">
<style type="text/css">
	.st0{fill:#FFFFFF;}
</style>
<g>
	<path class="st0" d="M392.6,220.7c0-21.7,0.1-43.4-0.1-65.1c0-6.6-1.2-13-6.1-18c-2.5-3.8-6.3-5.7-10.4-7.2
		c-4.9-1.7-10-1.5-15.1-1.5c-6.6,0.1-5.9-0.8-5.9,5.8c-0.5,39.9,1,79.9-0.8,119.8c0,0,0,0,0,0c0,0,0,0,0,0
		c-2.2,6.4-4.8,12.6-10.1,17.3c-7.2,6.4-15.9,7.5-24.9,7.6c-56.3,0.1-112.7,0-169,0c-10.1,0-20.1,0-30.2-0.1c-1.8,0-2.8,0.2-2.8,2.2
		c-0.1,4.6-0.1,9.1,2.2,13.4c7.3,13.7,18.6,21.5,34.2,21.6c51.2,0.2,102.5,0.1,153.7,0.1c2.1,0,4.1,0,6,1.2
		c13.7,8.2,27.4,16.2,41.1,24.3c5.5,3.2,11,6.4,16.5,9.6c0.8-1.6,0.2-2.7,0-3.9c-2.2-8.7-4.4-17.5-6.5-26.2c-1.2-4.8-1.2-4.7,3.6-5
		c5.8-0.4,10.9-2.4,15.1-6.6c6.9-6.9,9.4-15.5,9.4-25C392.6,263.6,392.6,242.2,392.6,220.7z"/>
	<path class="st0" d="M292.5,261.5c3.4,0,6.7-0.2,9.9-1.4c0,0,0,0,0,0l0.3,0l0.3-0.1c4-0.4,7.8-1.5,11.2-3.8c0,0,0,0,0,0
		c10.8-4.1,18.7-14.3,18.7-24.8c0.1-49,0-98,0-147c0-4.5-1.1-8.8-3.4-12.7c-8.7-15.3-21.9-23.1-39.5-23.2
		c-77.8-0.1-155.6,0-233.3-0.1c-13.1,0-24.8,3.7-34.8,11.9C14,66.9,7.4,74.7,7.4,86c0,48,0,95.9,0,143.9c0,6.1,2.1,11.2,6.2,15.6
		c7.9,8.5,17.9,12.8,29.1,14.7c3.2,0.5,5.1,1.3,3.9,5.4c-3.3,11.1-6.1,22.4-9,33.6c-0.8,3.2-2.1,6.3-2.1,9.9
		c0.7-0.3,1.1-0.4,1.4-0.5c17.5-10.2,34.9-20.4,52.4-30.7c8.1-4.8,16.1-9.7,24.1-14.5c3-1.6,6.1-1.9,9.4-1.9
		C179.4,261.5,235.9,261.5,292.5,261.5z M89.3,171.3c-11.7-0.1-21.6-10.1-21.5-21.9c0.1-12,9.7-21.3,21.9-21.2
		c12.1,0.1,21.3,9.6,21.3,21.8C110.9,161.4,100.8,171.4,89.3,171.3z M251.1,128.1c12.2,0,21.6,9.2,21.6,21.4
		c0,11.8-9.8,21.7-21.6,21.8c-11.5,0.1-21.7-10.3-21.6-21.9C229.5,137.8,239.4,128.1,251.1,128.1z M170.2,128.1
		c12.2,0,21.6,9.3,21.6,21.4c0,10.8-7.9,21.2-21.7,21.6c-11.5,0.3-21.5-10-21.5-21.5C148.6,137.8,158.2,128.1,170.2,128.1z"/>
</g>
</svg>
