<?xml version="1.0" encoding="utf-8"?>
<!-- Generator: Adobe Illustrator 24.0.1, SVG Export Plug-In . SVG Version: 6.00 Build 0)  -->
<svg version="1.1" id="Layer_1" xmlns="http://www.w3.org/2000/svg" xmlns:xlink="http://www.w3.org/1999/xlink" x="0px" y="0px"
	 viewBox="0 0 400 400" style="enable-background:new 0 0 400 400;" xml:space="preserve">
<style type="text/css">
	.st0{fill:#FFFFFF;}
</style>
<g>
	<path class="st0" d="M392.6,220.7c0-21.7,0.1-43.4-0.1-65.1c0-6.6-1.2-13-6.1-18c-2.5-3.8-6.3-5.7-10.4-7.2
		c-4.9-1.7-10-1.5-15.1-1.5c-6.6,0.1-5.9-0.8-5.9,5.8c-0.5,39.9,1,79.9-0.8,119.8c0,0,0,0,0,0c0,0,0,0,0,0
		c-2.2,6.4-4.8,12.6-10.1,17.3c-7.2,6.4-15.9,7.5-24.9,7.6c-56.3,0.1-112.7,0-169,0c-10.1,0-20.1,0-30.2-0.1c-1.8,0-2.8,0.2-2.8,2.2
		c-0.1,4.6-0.1,9.1,2.2,13.4c7.3,13.7,18.6,21.5,34.2,21.6c51.2,0.2,102.5,0.1,153.7,0.1c2.1,0,4.1,0,6,1.2
		c13.7,8.2,27.4,16.2,41.1,24.3c5.5,3.2,11,6.4,16.5,9.6c0.8-1.6,0.2-2.7,0-3.9c-2.2-8.7-4.4-17.5-6.5-26.2c-1.2-4.8-1.2-4.7,3.6-5
		c5.8-0.4,10.9-2.4,15.1-6.6c6.9-6.9,9.4-15.5,9.4-25C392.6,263.6,392.6,242.2,392.6,220.7z"/>
	<path class="st0" d="M292.5,261.5c3.4,0,6.7-0.2,9.9-1.4c0,0,0,0,0,0l0.3,0l0.3-0.1c4-0.4,7.8-1.5,11.2-3.8c0,0,0,0,0,0
		c10.8-4.1,18.7-14.3,18.7-24.8c0.1-49,0-98,0-147c0-4.5-1.1-8.8-3.4-12.7c-8.7-15.3-21.9-23.1-39.5-23.2
		c-77.8-0.1-155.6,0-233.3-0.1c-13.1,0-24.8,3.7-34.8,11.9C14,66.9,7.4,74.7,7.4,86c0,48,0,95.9,0,143.9c0,6.1,2.1,11.2,6.2,15.6
		c7.9,8.5,17.9,12.8,29.1,14.7c3.2,0.5,5.1,1.3,3.9,5.4c-3.3,11.1-6.1,22.4-9,33.6c-0.8,3.2-2.1,6.3-2.1,9.9
		c0.7-0.3,1.1-0.4,1.4-0.5c17.5-10.2,34.9-20.4,52.4-30.7c8.1-4.8,16.1-9.7,24.1-14.5c3-1.6,6.1-1.9,9.4-1.9
		C179.4,261.5,235.9,261.5,292.5,261.5z M89.3,171.3c-11.7-0.1-21.6-10.1-21.5-21.9c0.1-12,9.7-21.3,21.9-21.2
		c12.1,0.1,21.3,9.6,21.3,21.8C110.9,161.4,100.8,171.4,89.3,171.3z M251.1,128.1c12.2,0,21.6,9.2,21.6,21.4
		c0,11.8-9.8,21.7-21.6,21.8c-11.5,0.1-21.7-10.3-21.6-21.9C229.5,137.8,239.4,128.1,251.1,128.1z M170.2,128.1
		c12.2,0,21.6,9.3,21.6,21.4c0,10.8-7.9,21.2-21.7,21.6c-11.5,0.3-21.5-10-21.5-21.5C148.6,137.8,158.2,128.1,170.2,128.1z"/>
</g>
<g>
	<path class="st0" d="M73.1,319c-6.2-2.5-12.1-5.7-17.5-9.7c-21.3-15.8-32.6-45-26.4-68.5c1.1-1.4,1-3.1,1.5-4.6
		c0.9-3.3,0.1-5.8-3.4-7.1l0,0c-5.2-2.2-7.9-0.9-9.8,4.8c-0.2,1.3-0.3,2.7-0.6,4c-8.5,40.1,13.1,78.7,51.8,92.4
		c4.5,1.6,7.8,0.5,9.2-3C79.2,323.8,77.5,320.8,73.1,319z"/>
	<path class="st0" d="M350.7,96.7c-4.2-2.3-7.8-1.9-9.7,1.2c-2,3.3-0.8,6.8,3.5,9.4c5.8,3.5,11.2,7.4,15.7,12.4
		c16.2,17.6,22.8,38,17.8,61.8c-1.6,4.3-2.4,8.9-4.2,13.2c-2.2,5.4-1.7,6.8,3.5,9.5c4.5,0.8,7-1.3,8.7-5.4
		C402.3,159.6,387.7,117.3,350.7,96.7z"/>
	<path class="st0" d="M320,153.4c-8.5-3.3-17.7,0.4-22.3,9c-4.1,7.8-8.1,15.7-12.1,23.5c-0.9,1.5-1.7,3-2.6,4.5v0
		c-0.2,0.1-0.4,0.2-0.6,0.2c-0.4,1.3-0.7,2.6-1.1,3.8c-0.1,0-0.3,0.1-0.4,0.1c-2.7,2.3-4.4,5.1-5.1,8.6c0,0.5,0.1,0.9,0.2,1.3
		c-0.4,0.8-0.8,1.6-1.3,2.4c0,0,0,0,0,0c0,0,0,0,0,0c-1.2,1.6-2.3,3.2-2.7,5.2c0,0-0.1,0-0.1,0c-2.5,1.1-2.2,4.1-3.8,5.8
		c-2.9,5.2-2.9,5.2-9,4.4c-0.6-1.1-1.1-2.3-1.7-3.4c0.1,0,0.1-0.1,0.2-0.1c0.3-0.9,0.3-1.8-0.1-2.7c-0.1-0.9-0.2-1.7-0.3-2.6
		c-0.7-3.7-1.1-7.5-1.8-11.2c-0.4-0.1-0.8-0.1-1.1,0.1c0-0.2,0.1-0.2,0.3-0.2c-0.2-1.6,0-3.3-1-4.8c0,0,0,0,0,0l0.2-0.3l-0.2-0.2
		c-0.1-0.1-0.1-0.1-0.2-0.2c0.3-0.3,0.6-0.6,0.9-0.9c-0.2-3.4-1.1-6.6-1.7-9.9c-0.3-1.3-0.7-2.6-1-4c-7.3-35.1-14.7-70.2-22-105.4
		c-2-9.6-8.9-14.9-17.4-13.5c-9.8,1.7-15.6,9.2-14.3,18.8c4.3,31.3,8.6,62.7,13,94c0.7,4.6,0.3,8.4-3.1,11.7
		c-5.4,1.5-8.8-0.1-11.1-5.6c-3.6-8.7-7.1-17.4-10.6-26.1c-9.9-24.4-19.8-48.9-29.8-73.3c-2-5-4.4-9.7-10.5-10.8
		c-2.7-1.3-5.5-1.5-8.3-0.1c0,0,0,0,0,0c-9,2-13.3,10.2-10.1,19.8c4.2,12.9,8.5,25.7,12.6,38.5c6.2,19.2,12.4,38.4,18.6,57.6
		c1.1,5.1,3.6,9.9,3.7,15.3c0.1,0.2,0.2,0.5,0.3,0.7c-1.4,3.5-3.9,5.6-8.2,5.2c-0.9-0.1-1.8-0.3-2.5,0.5c0,0,0,0,0,0
		c-0.5-0.3-1-0.6-1.4-0.9c-0.6-0.6-1.2-1.2-1.8-1.7c0-3-2.1-5-3.7-7.1c0,0,0,0,0,0c-1.3-2.5-2.6-5.1-3.9-7.6c0-0.4,0-0.9,0-1.3
		c-0.6-1.7-1.5-3.3-2.8-4.7c-0.9-1.4-1.8-2.8-2.6-4.2c-10.5-19.4-21-38.8-31.6-58.1c-4-7.3-10.8-10-17.9-7.3c0,0,0,0,0,0
		c0,0,0,0,0,0c0,0,0,0,0,0c-8.9,2.5-13,11.2-9.2,20.2c2.8,6.7,5.7,13.4,8.6,20c1.3,3.5,2.7,6.9,4.2,10.3c0.7,1.7,0.4,4.1,3,4.5
		c-0.7,2.2,0.2,3.8,1.7,5.2c0,0.1,0,0.1,0,0.2c4.1,7.3,7.2,14.9,10.3,22.7c0.2,0.2,0.4,0.5,0.6,0.7c0,0.3,0,0.5,0,0.8
		c0.4,2.4,0.7,4.9,1.8,7.1c0.8,0.7,1.3,1.6,1.7,2.6c0.5,2.2,1.3,4.3,2.8,6c0.1,0.3,0.2,0.5,0.3,0.8c0.2,0.4,0.3,0.8,0.6,1.1
		c0.4,0.5,0.6,1.2,0.9,1.8c0.3,2,0.5,4.1,0.5,6.1c-0.3,0.3-0.6,0.6-0.9,0.9c-1.2,2.5-3.5,3.7-5.8,4.9c0,0.1-0.1,0.1-0.1,0.2
		c-1-0.1-1.9-0.8-2.8-0.5c-0.6-1.1-1.1-2.2-1.7-3.3c-0.3-0.5-0.7-1-1-1.5c-0.2-0.3-0.4-0.7-0.6-1c-0.1-0.5-0.3-1-0.6-1.6l-9.8-17.5
		c-0.1-0.6-0.7-0.8-1.3-1c-0.2-0.3-0.3-0.6-0.5-0.9c-0.1-0.2-0.2-0.3-0.3-0.5c0-2.5-1.5-4.1-3.3-5.6c-0.3-0.5-0.5-1-0.8-1.5
		c-0.9-1.9-2.6-3.2-3.8-4.8c0-0.1-0.1-0.1-0.1-0.2c0.4-1.2-0.6-2-1.4-2.8c-0.4-2.6-1-5.2-3.8-6.4c-0.6-0.9-1.1-1.8-1.7-2.7
		c0,0,0.3-0.3,0.3-0.3c-0.5-1.5-0.7-3.3-2.8-3.5c0,0,0,0,0,0l0,0c-1.5-0.6-3-1.3-4.5-1.9c-1,0.1-2,0.1-3,0.1c0,0,0,0,0,0
		c0,0,0,0,0,0c-0.5,0-0.9,0-1.4,0c-2.2,0.8-5,0.2-6.6,2.7c-6,4.9-7.4,11-4.5,18.1c0.9,1.2,0.3,3.6,2.6,3.8c0,0,0,0.1,0,0.1
		c1.4,3,2.7,5.9,4.1,8.9c0.2,0.4,0.4,0.7,0.6,1.1v0c1.1,4,1.5,8.3,5.6,10.8c-0.1,1.5,0.6,2.7,1.6,3.7c0,0,0,0,0,0
		c0.3,0.6,0.7,1.2,1,1.8c0,0,0,0,0,0c0,0,0,0,0,0c0.5,4.1,2.7,7.2,5.4,10.1c1.1,1.8,2.3,3.7,3.4,5.5h0c0.4,1.2,0.9,2.4,1.3,3.5
		c0.6,0.7,1.1,1.3,1.7,2c-0.3,1.9,1.4,2.9,2.1,4.4c11.1,22.5,23.8,44.2,36.5,65.8c10.2,17.3,23.7,30.7,41.9,39.4
		c21.6,10.4,44,10.7,66.9,5.9c26.7-5.6,47.3-19.9,61.8-43c7.7-12.2,10.9-25.9,13.9-39.8c3-14.1,5.8-28.3,10.6-41.9
		c0.8-1.8,1.5-3.7,1.6-5.8c-0.2-0.2-0.4-0.5-0.6-0.6c0.4-0.9-0.3-2.1,0.9-2.8l0,0v0c1.9-1,0.7-3.3,1.8-4.6c0-1.5,1.4-2.8,0.9-4.4
		c1.2-4.5,2.5-9.1,3.7-13.6l0,0c1.3-1.3,0.6-3,1-4.5h0c0,0,0,0,0,0c0.2-0.1,0.4-0.3,0.7-0.3c0-0.8,0.1-1.7,0.1-2.5
		c0.9-1.3-0.6-3.1,1.1-4.1c0-0.1,0-0.2,0-0.3c0.1,0.1,0.2,0.1,0.4,0.1c1.7-1.7,1.5-4,2.1-6.1c0.6-4.7,2.3-9.1,3.4-13.7
		C331.3,166.1,326.9,156.1,320,153.4z M105,235.4C105,235.3,105,235.3,105,235.4L105,235.4c0.1,0,0.1,0,0.2,0
		C105.1,235.4,105,235.4,105,235.4z M71,178.1C71,178.1,71,178.1,71,178.1C71,178.1,71,178.1,71,178.1C71,178.1,71,178.1,71,178.1z
		 M58.8,210.5c-0.1-0.2-0.3-0.5-0.4-0.7C58.5,210,58.7,210.3,58.8,210.5z M112.2,214.3C112.2,214.3,112.3,214.3,112.2,214.3
		C112.3,214.3,112.3,214.3,112.2,214.3C112.2,214.3,112.2,214.3,112.2,214.3z M115.8,222.8c0,0,0-0.1-0.1-0.1c0,0,0.1,0,0.1,0
		C115.8,222.7,115.8,222.7,115.8,222.8z M216.5,204.4C216.5,204.3,216.5,204.3,216.5,204.4C216.5,204.3,216.5,204.3,216.5,204.4
		C216.5,204.3,216.5,204.3,216.5,204.4z M224.6,227.1c0,0,0,0.1-0.1,0.1c0,0-0.1-0.1-0.1-0.1C224.5,227.1,224.5,227.1,224.6,227.1
		C224.6,227.1,224.6,227.1,224.6,227.1C224.6,227.1,224.6,227.1,224.6,227.1z M237.4,219.7C237.4,219.7,237.4,219.7,237.4,219.7
		C237.4,219.7,237.4,219.7,237.4,219.7c0-0.1,0.1-0.1,0.1-0.1C237.5,219.7,237.4,219.7,237.4,219.7z M237.4,210.4
		c0.1,0.1,0.1,0.2,0.2,0.3c-0.1,0-0.1,0-0.2,0.1C237.4,210.7,237.4,210.6,237.4,210.4z M176.1,204.5
		C176,204.5,176,204.5,176.1,204.5C176,204.5,176,204.5,176.1,204.5C176,204.5,176.1,204.5,176.1,204.5z M152.7,209.5
		c-0.2,0-0.3,0-0.5-0.1C152.4,209.4,152.5,209.5,152.7,209.5z M274,227C274,227,274,227,274,227C274,227,274,227,274,227
		C274,227,274,227,274,227z"/>
	<path class="st0" d="M337.7,125.3c-4.7-3-9.5-1.7-10.6,2.9c-0.8,3.6,1.3,5.6,3.9,7.5c15.1,10.9,20.4,26.5,15.3,44.5
		c-0.6,2.3-0.9,4.4-0.3,6.7c0.8,1,1.3,2.2,2.9,2.3c0.1,0,0.2,0,0.3,0c1.5,1,3.1,1.1,4.7,0.1c0.2,0,0.4,0.1,0.6,0.1
		c2.5,0.1,2.7-1.9,3.3-3.6c0.2-0.9,0.4-1.8,0.6-2.6C365.1,160.4,357,137.7,337.7,125.3z"/>
	<path class="st0" d="M85.9,292.8c-0.3-2.8-2.8-3.3-4.8-4.3c-10.6-5.4-17.7-13.7-20.8-25.2c-1.6-5.8-1.5-11.7-0.7-17.6
		c0.5-3.9-1.2-6.5-5.1-7.3c-3.4-0.6-6.2,1.7-6.9,5.6c-0.4,2.1-0.6,4.2-0.8,6.3c-1.8,21.1,11,41.9,30.5,49.8c3.7,1.5,6.8,1.5,8.6-2.8
		C87,295.9,87.1,294.3,85.9,292.8L85.9,292.8z"/>
</g>
</svg>
