<svg width="18" height="18" viewBox="0 0 18 18" fill="none" xmlns="http://www.w3.org/2000/svg">
<path fill-rule="evenodd" clip-rule="evenodd" d="M15.9825 7.185L18 4.5C15.495 2.6175 12.375 1.5 9 1.5C5.625 1.5 2.505 2.6175 0 4.5L9 16.5L11.625 12.9975V10.875C11.625 8.805 13.305 7.125 15.375 7.125C15.585 7.125 15.7875 7.155 15.9825 7.185ZM17.25 12V10.875C17.25 9.84 16.41 9 15.375 9C14.34 9 13.5 9.84 13.5 10.875V12C13.0875 12 12.75 12.3375 12.75 12.75V15.75C12.75 16.1625 13.0875 16.5 13.5 16.5H17.25C17.6625 16.5 18 16.1625 18 15.75V12.75C18 12.3375 17.6625 12 17.25 12ZM14.25 12H16.5V10.875C16.5 10.2525 15.9975 9.75 15.375 9.75C14.7525 9.75 14.25 10.2525 14.25 10.875V12Z" fill="#F2F2F2"/>
</svg>
