<svg width="18" height="18" viewBox="0 0 18 18" fill="none" xmlns="http://www.w3.org/2000/svg">
<path d="M11.0769 10.0781C11.0769 8.09438 12.6277 6.48438 14.5385 6.48438C15.1269 6.48438 15.6738 6.64969 16.1585 6.92282L17.7092 4.9175C17.3769 4.65875 14.0262 1.8125 9 1.8125C3.97385 1.8125 0.623079 4.65875 0.290771 4.9175L9 16.1875L11.9215 12.4069C11.4023 11.7816 11.0769 10.9694 11.0769 10.0781Z" fill="#F2F2F2"/>
<path d="M14.5384 7.56251C13.2023 7.56251 12.1154 8.69095 12.1154 10.0781H13.3269C13.3269 9.38095 13.8669 8.82032 14.5384 8.82032C15.21 8.82032 15.75 9.38095 15.75 10.0781C15.75 10.4231 15.6115 10.7394 15.3969 10.9694L14.6423 11.76C14.2061 12.2128 13.9361 12.8453 13.9361 13.5353V13.8516H15.1477C15.1477 12.91 15.4177 12.5291 15.8607 12.0763L16.4007 11.5013C16.7469 11.1419 16.9684 10.6388 16.9684 10.0853C16.9615 8.69095 15.8746 7.56251 14.5384 7.56251Z" fill="#F2F2F2"/>
<path d="M13.8808 16.1516H15.1962V14.7859H13.8808V16.1516Z" fill="#F2F2F2"/>
</svg>
