<svg width="16" height="16" viewBox="0 0 16 16" fill="none" xmlns="http://www.w3.org/2000/svg">
<g clip-path="url(#clip0)">
<path d="M10.8226 10.0693L14.9118 13.472V12.0266C15.2658 11.4202 15.5426 10.7633 15.7285 10.0693H10.8226Z" fill="#A1A1A1"/>
<path d="M2.12661 13.3334C2.11092 13.3463 2.09439 13.3576 2.07739 13.3674C3.06311 14.4533 4.34145 15.2679 5.78396 15.6859V10.318L2.12661 13.3334Z" fill="#A1A1A1"/>
<path d="M10.2161 0.313248V5.51453L13.9599 2.67406C12.9708 1.56797 11.6794 0.736591 10.2161 0.313248Z" fill="#A1A1A1"/>
<path d="M14.4237 3.243L10.8812 5.93072H15.727C15.4628 4.94878 15.0154 4.03968 14.4237 3.243Z" fill="#A1A1A1"/>
<path d="M15.8877 6.66431H9.84919C9.64662 6.66431 9.48237 6.50009 9.48237 6.29749V0.138278C9.0415 0.0551848 8.58803 0.00802853 8.1249 0.000934779C7.57484 -0.00747147 7.03741 0.0400598 6.51756 0.137497V6.29749C6.51756 6.50009 6.35331 6.66431 6.15075 6.66431H0.111061C0.0318737 7.1354 -0.00615757 7.62046 0.000811185 8.11568C0.00668618 8.53071 0.0445612 8.93812 0.11178 9.33565H6.15078C6.35334 9.33565 6.51759 9.49987 6.51759 9.70246V15.861C7.01222 15.9545 7.52231 16.0026 8.04353 15.9999C8.53509 15.9972 9.01581 15.9496 9.48237 15.8617V9.70246C9.48241 9.49987 9.64662 9.33565 9.84922 9.33565H15.8882C15.9574 8.92593 15.9955 8.50568 15.9996 8.07721C16.0042 7.59584 15.9657 7.12365 15.8877 6.66431Z" fill="#A1A1A1"/>
<path d="M0.272095 10.0693C0.542157 11.0748 1.00422 12.0025 1.61581 12.811C1.62916 12.7956 1.64369 12.7808 1.65997 12.7673L4.93247 10.0693H0.272095Z" fill="#A1A1A1"/>
<path d="M1.4851 3.35672C0.936689 4.12481 0.520908 4.99388 0.270752 5.93072H4.93219L1.4851 3.35672Z" fill="#A1A1A1"/>
<path d="M1.93823 2.77943L5.78405 5.65117V0.311523C4.26983 0.74721 2.93976 1.61755 1.93823 2.77943Z" fill="#A1A1A1"/>
<path d="M10.2161 10.5189V15.6869C10.695 15.5486 11.1558 15.3676 11.5934 15.1471H13.7139C14.2294 15.1471 14.6688 14.8214 14.8377 14.3647L10.2161 10.5189Z" fill="#A1A1A1"/>
</g>
<defs>
<clipPath id="clip0">
<rect width="16" height="16" fill="white"/>
</clipPath>
</defs>
</svg>
