<svg width="8" height="5" viewBox="0 0 8 5" fill="none" xmlns="http://www.w3.org/2000/svg">
<path d="M5.09732 1.12802C4.32157 0.653935 3.27375 0.847778 2.75692 1.55765C2.49768 1.91198 2.60304 2.39344 2.99091 2.63048C3.37848 2.86752 3.90203 2.77125 4.16062 2.41569C4.41921 2.06013 4.9431 1.96506 5.33067 2.20088C5.71885 2.43792 5.82325 2.91938 5.56432 3.2737C6.0815 2.5626 5.87244 1.6021 5.09732 1.12802Z" fill="#A1A1A1"/>
<path d="M2.75695 1.55762C2.49771 1.91194 2.60307 2.3934 2.99095 2.63044C3.37852 2.86748 3.90206 2.77122 4.16065 2.41565C4.41924 2.0601 4.94313 1.96503 5.3307 2.20084C5.71888 2.43788 5.82328 2.91934 5.56435 3.27366C5.04788 3.98601 4.00039 4.17737 3.22464 3.7033C2.44956 3.22924 2.2398 2.26874 2.75695 1.55762Z" fill="white"/>
<path d="M5.95636 0.543311L6.26303 0.965831C6.2888 1.00133 6.27837 1.04926 6.23972 1.07298L6.16196 1.12072C6.12315 1.14454 6.07064 1.13496 6.04474 1.09933L5.73769 0.676899C5.71185 0.641363 5.72231 0.593345 5.76106 0.569643L5.8392 0.521817C5.87803 0.498063 5.93051 0.507705 5.95636 0.543311Z" fill="#A1A1A1"/>
<path d="M6.42943 1.19481L6.73709 1.61708C6.76307 1.65274 6.75247 1.70097 6.71344 1.72462L6.63535 1.77194C6.5966 1.79541 6.54443 1.78577 6.51863 1.75037L6.21114 1.32855C6.18524 1.29302 6.19565 1.24498 6.23441 1.22123L6.31233 1.17347C6.35109 1.1497 6.40353 1.15925 6.42943 1.19481Z" fill="#A1A1A1"/>
<path d="M6.28467 0.342578L7.06552 1.41679C7.09138 1.45234 7.08088 1.50038 7.04209 1.52408L6.96364 1.57203C6.92485 1.59573 6.87243 1.58612 6.84658 1.55057L6.06545 0.476447C6.03958 0.440876 6.0501 0.392805 6.08892 0.36912L6.16762 0.321102C6.20644 0.2974 6.25883 0.307025 6.28467 0.342578Z" fill="#A1A1A1"/>
<path d="M6.61201 0.141931L6.91935 0.565294C6.94522 0.600952 6.93459 0.649093 6.89561 0.672725L6.81745 0.720077C6.77866 0.743569 6.72647 0.733909 6.70067 0.698443L6.3931 0.275642C6.36723 0.240089 6.37771 0.192035 6.41651 0.168333L6.49491 0.120438C6.53371 0.0967006 6.58615 0.106343 6.61201 0.141931Z" fill="#A1A1A1"/>
<path d="M7.08553 0.794759L7.39241 1.21725C7.41821 1.25276 7.40776 1.30073 7.36905 1.32445L7.29112 1.37222C7.25232 1.39601 7.19982 1.3864 7.17394 1.35078L6.86706 0.928295C6.84126 0.892777 6.85171 0.844811 6.89041 0.821091L6.96835 0.773319C7.00715 0.749529 7.05965 0.759136 7.08553 0.794759Z" fill="#A1A1A1"/>
<path d="M1.80231 3.08181L2.58307 4.15487C2.60892 4.1904 2.59848 4.23844 2.55971 4.26216L2.48151 4.31002C2.44273 4.33376 2.39029 4.32417 2.36441 4.28859L1.58365 3.21554C1.55779 3.18001 1.56825 3.13197 1.607 3.10825L1.6852 3.06039C1.72401 3.03665 1.77643 3.04626 1.80231 3.08181Z" fill="#A1A1A1"/>
<path d="M1.47452 3.28252L1.78103 3.70398C1.80685 3.7395 1.79645 3.78747 1.75776 3.81121L1.68 3.85893C1.64123 3.88272 1.58875 3.87316 1.56284 3.83759L1.25592 3.41623C1.23002 3.38069 1.24049 3.33264 1.27925 3.3089L1.3574 3.26107C1.3962 3.23734 1.44864 3.24694 1.47452 3.28252Z" fill="#A1A1A1"/>
<path d="M1.9482 3.93416L2.2551 4.35668C2.2809 4.3922 2.27046 4.44018 2.23175 4.46388L2.15376 4.51167C2.11496 4.53545 2.06248 4.52586 2.0366 4.49025L1.72951 4.0678C1.70367 4.03226 1.71413 3.98426 1.75288 3.96054L1.83106 3.91268C1.86987 3.88895 1.92235 3.89855 1.9482 3.93416Z" fill="#A1A1A1"/>
<path d="M1.1468 3.4832L1.92706 4.55631C1.9529 4.59182 1.94246 4.63982 1.90373 4.66354L1.82576 4.71132C1.78697 4.73509 1.73451 4.7255 1.70862 4.68993L0.927894 3.61696C0.902018 3.58141 0.912498 3.53336 0.951303 3.50964L1.02973 3.46171C1.06852 3.43804 1.12094 3.44765 1.1468 3.4832Z" fill="#A1A1A1"/>
<path d="M1.58388 1.61718L2.36453 0.54327C2.3904 0.507682 2.44284 0.498074 2.48165 0.521829L2.55981 0.569672C2.59858 0.593392 2.60902 0.641427 2.58317 0.676963L1.80222 1.75026C1.77642 1.78573 1.72419 1.79539 1.6854 1.77186L1.60754 1.72463C1.56857 1.70098 1.55797 1.65284 1.58388 1.61718Z" fill="#A1A1A1"/>
<path d="M1.25588 1.41671L2.03667 0.342587C2.06255 0.306981 2.11503 0.297391 2.15383 0.321163L2.23181 0.368936C2.27052 0.392656 2.28096 0.440639 2.25514 0.476157L1.47455 1.55035C1.4487 1.58594 1.39624 1.59556 1.35743 1.57181L1.27925 1.52397C1.2405 1.50026 1.23004 1.45224 1.25588 1.41671Z" fill="#A1A1A1"/>
<path d="M0.927738 1.21834L1.70859 0.143148C1.73447 0.107524 1.78697 0.0979173 1.82577 0.121707L1.90374 0.169497C1.94243 0.193217 1.9529 0.241165 1.92712 0.276684L1.14672 1.35202C1.12088 1.38762 1.06844 1.39726 1.02962 1.37354L0.951186 1.32561C0.9124 1.30191 0.9019 1.25389 0.927738 1.21834Z" fill="#A1A1A1"/>
<path d="M5.73773 4.15476L6.04465 3.73339C6.07056 3.69782 6.12304 3.68827 6.16183 3.71206L6.23959 3.7598C6.27828 3.78353 6.28868 3.83152 6.26286 3.86702L5.95633 4.28847C5.93045 4.32404 5.87801 4.33365 5.83923 4.30991L5.76108 4.26208C5.7223 4.23835 5.71183 4.19031 5.73773 4.15476Z" fill="#A1A1A1"/>
<path d="M6.21104 3.50533L6.51844 3.08188C6.54428 3.04628 6.59672 3.03665 6.63554 3.06037L6.71388 3.10823C6.7527 3.13195 6.76316 3.18004 6.73725 3.21559L6.4292 3.63838C6.40338 3.67383 6.35113 3.68345 6.31237 3.65991L6.23468 3.61271C6.19578 3.58906 6.18519 3.54096 6.21104 3.50533Z" fill="#A1A1A1"/>
<path d="M6.06544 4.35661L6.37255 3.93414C6.39841 3.89857 6.45083 3.88895 6.48963 3.91267L6.56812 3.96065C6.60689 3.98435 6.61739 4.03235 6.59155 4.06791L6.28465 4.49043C6.25881 4.526 6.20641 4.53564 6.16761 4.51196L6.08891 4.46394C6.0501 4.44025 6.03958 4.3922 6.06544 4.35661Z" fill="#A1A1A1"/>
<path d="M6.53926 3.70368L6.84652 3.28219C6.8724 3.24669 6.92478 3.23712 6.96353 3.26081L7.04196 3.30874C7.08078 3.33246 7.09124 3.38054 7.06531 3.41612L6.75807 3.8376C6.73219 3.8731 6.67983 3.88267 6.64106 3.85899L6.56261 3.81104C6.5238 3.78732 6.51334 3.73923 6.53926 3.70368Z" fill="#A1A1A1"/>
<path d="M6.39326 4.55598L6.7007 4.13425C6.7265 4.09884 6.77867 4.08921 6.81742 4.11269L6.89558 4.16004C6.9346 4.18367 6.94521 4.23186 6.91928 4.26752L6.61207 4.68981C6.58621 4.72537 6.53381 4.73498 6.49501 4.71127L6.41661 4.66338C6.37781 4.63964 6.36735 4.59153 6.39326 4.55598Z" fill="#A1A1A1"/>
<path d="M6.8673 3.90547L7.17398 3.48324C7.19986 3.44761 7.25236 3.43801 7.29116 3.4618L7.36904 3.50951C7.40777 3.53325 7.41819 3.58127 7.39234 3.61679L7.08542 4.03847C7.0596 4.07393 7.00733 4.08357 6.96856 4.06001L6.89094 4.01284C6.85202 3.98922 6.84144 3.9411 6.8673 3.90547Z" fill="#A1A1A1"/>
</svg>
