<svg width="24" height="22" viewBox="0 0 24 22" fill="none" xmlns="http://www.w3.org/2000/svg">
<path d="M14.2976 7.84317C12.3963 6.68121 9.82811 7.15632 8.56136 8.89621C7.92596 9.76465 8.1842 10.9447 9.13487 11.5257C10.0848 12.1067 11.368 11.8707 12.0018 10.9992C12.6356 10.1278 13.9196 9.89476 14.8696 10.4727C15.821 11.0537 16.0769 12.2338 15.4422 13.1022C16.7098 11.3593 16.1974 9.00513 14.2976 7.84317Z" fill="#A1A1A1"/>
<path d="M8.56055 8.89621C7.92516 9.76465 8.18339 10.9447 9.13406 11.5257C10.084 12.1067 11.3672 11.8707 12.001 10.9992C12.6348 10.1278 13.9188 9.89476 14.8688 10.4727C15.8202 11.0537 16.0761 12.2338 15.4414 13.1022C14.1756 14.8482 11.6082 15.3172 9.70683 14.1552C7.80713 12.9933 7.293 10.6392 8.56055 8.89621Z" fill="white"/>
<path d="M16.4028 6.41046L17.1544 7.44605C17.2175 7.53306 17.192 7.65054 17.0973 7.70868L16.9067 7.82568C16.8115 7.88408 16.6828 7.86057 16.6194 7.77326L15.8668 6.73789C15.8035 6.65079 15.8291 6.5331 15.9241 6.475L16.1156 6.35778C16.2108 6.29956 16.3394 6.32319 16.4028 6.41046Z" fill="#A1A1A1"/>
<path d="M17.5621 8.00726L18.3162 9.04225C18.3798 9.12964 18.3539 9.24785 18.2582 9.30582L18.0668 9.42179C17.9718 9.47932 17.844 9.45569 17.7807 9.36894L17.0271 8.33507C16.9636 8.24797 16.9891 8.13024 17.0841 8.07201L17.2751 7.95497C17.3701 7.8967 17.4986 7.92012 17.5621 8.00726Z" fill="#A1A1A1"/>
<path d="M17.2068 5.9182L19.1207 8.55107C19.184 8.63821 19.1583 8.75594 19.0632 8.81404L18.871 8.93156C18.7759 8.98965 18.6474 8.9661 18.584 8.87896L16.6695 6.24631C16.6061 6.15913 16.6319 6.04131 16.727 5.98326L16.9199 5.86556C17.0151 5.80747 17.1435 5.83106 17.2068 5.9182Z" fill="#A1A1A1"/>
<path d="M18.0098 5.42656L18.7631 6.46421C18.8265 6.55161 18.8004 6.6696 18.7049 6.72753L18.5133 6.84359C18.4183 6.90116 18.2904 6.87749 18.2271 6.79056L17.4733 5.75428C17.4099 5.66714 17.4355 5.54937 17.5307 5.49127L17.7228 5.37388C17.8179 5.3157 17.9464 5.33934 18.0098 5.42656Z" fill="#A1A1A1"/>
<path d="M19.1707 7.02671L19.9229 8.06222C19.9861 8.14927 19.9605 8.26683 19.8657 8.32497L19.6746 8.44206C19.5795 8.50037 19.4509 8.47682 19.3874 8.38951L18.6353 7.354C18.5721 7.26695 18.5976 7.14939 18.6925 7.09125L18.8835 6.97416C18.9786 6.91585 19.1073 6.9394 19.1707 7.02671Z" fill="#A1A1A1"/>
<path d="M6.2211 12.632L8.13472 15.2621C8.1981 15.3492 8.1725 15.4669 8.07749 15.525L7.88582 15.6423C7.79075 15.7005 7.66222 15.677 7.5988 15.5898L5.68518 12.9598C5.6218 12.8727 5.64744 12.755 5.74241 12.6968L5.93408 12.5795C6.02919 12.5213 6.15768 12.5449 6.2211 12.632Z" fill="#A1A1A1"/>
<path d="M5.41829 13.124L6.16956 14.157C6.23284 14.2441 6.20734 14.3616 6.11251 14.4198L5.92191 14.5368C5.8269 14.5951 5.69827 14.5716 5.63476 14.4845L4.88251 13.4517C4.81904 13.3646 4.84468 13.2468 4.9397 13.1887L5.13123 13.0714C5.22634 13.0133 5.35487 13.0368 5.41829 13.124Z" fill="#A1A1A1"/>
<path d="M6.57858 14.7213L7.33078 15.7569C7.39402 15.844 7.36842 15.9616 7.27355 16.0197L7.08239 16.1368C6.98728 16.1951 6.85866 16.1715 6.79524 16.0843L6.04256 15.0489C5.97923 14.9618 6.00487 14.8441 6.09984 14.786L6.29147 14.6687C6.38658 14.6105 6.5152 14.634 6.57858 14.7213Z" fill="#A1A1A1"/>
<path d="M4.6143 13.6158L6.52671 16.2459C6.59003 16.333 6.56444 16.4506 6.46952 16.5088L6.27841 16.6259C6.18335 16.6841 6.05477 16.6606 5.9913 16.5734L4.07777 13.9436C4.01435 13.8565 4.04003 13.7387 4.13514 13.6806L4.32738 13.5631C4.42244 13.5051 4.55092 13.5286 4.6143 13.6158Z" fill="#A1A1A1"/>
<path d="M5.68613 9.04238L7.59947 6.41024C7.66289 6.32301 7.79142 6.29947 7.88653 6.35769L8.07811 6.47495C8.17313 6.53309 8.19872 6.65082 8.13534 6.73792L6.22125 9.36855C6.15802 9.45548 6.03 9.47916 5.93494 9.42149L5.74411 9.30573C5.64858 9.24777 5.62261 9.12978 5.68613 9.04238Z" fill="#A1A1A1"/>
<path d="M4.88143 8.55116L6.79515 5.91851C6.85857 5.83124 6.98719 5.80774 7.0823 5.866L7.27341 5.98309C7.36829 6.04123 7.39388 6.15884 7.3306 6.24589L5.4174 8.87872C5.35402 8.96594 5.22544 8.98953 5.13034 8.93131L4.93871 8.81405C4.84374 8.75595 4.8181 8.63826 4.88143 8.55116Z" fill="#A1A1A1"/>
<path d="M4.07768 8.06299L5.99154 5.42771C6.05497 5.3404 6.18364 5.31685 6.27875 5.37516L6.46986 5.49229C6.56469 5.55043 6.59033 5.66795 6.52714 5.75501L4.6144 8.39062C4.55108 8.47789 4.42254 8.50153 4.32739 8.44339L4.13515 8.32591C4.04009 8.26782 4.01436 8.15013 4.07768 8.06299Z" fill="#A1A1A1"/>
<path d="M15.8669 15.262L16.6191 14.2293C16.6826 14.1421 16.8113 14.1187 16.9063 14.177L17.0969 14.294C17.1918 14.3522 17.2173 14.4698 17.154 14.5568L16.4027 15.5897C16.3392 15.6769 16.2107 15.7005 16.1156 15.6423L15.9241 15.5251C15.8291 15.4669 15.8034 15.3492 15.8669 15.262Z" fill="#A1A1A1"/>
<path d="M17.0269 13.6701L17.7803 12.6322C17.8436 12.5449 17.9721 12.5214 18.0673 12.5795L18.2593 12.6968C18.3544 12.7549 18.3801 12.8728 18.3166 12.9599L17.5616 13.9962C17.4983 14.0831 17.3702 14.1066 17.2752 14.0489L17.0848 13.9333C16.9894 13.8753 16.9635 13.7574 17.0269 13.6701Z" fill="#A1A1A1"/>
<path d="M16.6695 15.7565L17.4222 14.7211C17.4856 14.6339 17.6141 14.6103 17.7092 14.6685L17.9016 14.7861C17.9966 14.8442 18.0223 14.9618 17.959 15.0489L17.2068 16.0845C17.1435 16.1717 17.015 16.1953 16.9199 16.1373L16.727 16.0196C16.6319 15.9616 16.6061 15.8438 16.6695 15.7565Z" fill="#A1A1A1"/>
<path d="M17.8318 14.1567L18.5849 13.1236C18.6483 13.0366 18.7767 13.0131 18.8716 13.0712L19.0639 13.1887C19.159 13.2468 19.1847 13.3647 19.1211 13.4518L18.3681 14.4849C18.3046 14.5719 18.1763 14.5954 18.0813 14.5373L17.889 14.4198C17.7939 14.3617 17.7682 14.2438 17.8318 14.1567Z" fill="#A1A1A1"/>
<path d="M17.4734 16.2457L18.2269 15.212C18.2901 15.1252 18.418 15.1016 18.513 15.1592L18.7045 15.2752C18.8002 15.3331 18.8262 15.4513 18.7626 15.5387L18.0097 16.5737C17.9463 16.6608 17.8178 16.6844 17.7227 16.6263L17.5306 16.5089C17.4355 16.4507 17.4098 16.3328 17.4734 16.2457Z" fill="#A1A1A1"/>
<path d="M18.6353 14.651L19.3869 13.6161C19.4504 13.5288 19.579 13.5053 19.6742 13.5636L19.865 13.6805C19.9599 13.7387 19.9855 13.8564 19.9221 13.9434L19.1699 14.977C19.1066 15.0639 18.9785 15.0875 18.8835 15.0298L18.6932 14.9142C18.5978 14.8563 18.5719 14.7383 18.6353 14.651Z" fill="#A1A1A1"/>
</svg>
