<svg width="16" height="16" viewBox="0 0 16 16" fill="none" xmlns="http://www.w3.org/2000/svg">
<path d="M14.806 0H1.19711C0.537605 0 0 0.815743 0 1.82707V14.1729C0 15.1843 0.537605 16 1.19711 16H14.8029C15.4655 16 16 15.1795 16 14.1729V1.82707C16.0031 0.815743 15.4655 0 14.806 0Z" fill="#A1A1A1"/>
<path d="M8.19409 3.14007L9.30055 6.45947L12.7981 6.4876C12.995 6.4876 13.0747 6.74077 12.9153 6.8533L10.1023 8.93027L11.1572 12.2637C11.2181 12.4513 11.0024 12.606 10.843 12.4888L8.00186 10.4587L5.156 12.4935C4.99659 12.606 4.78561 12.4513 4.84188 12.2684L5.89677 8.93495L3.08372 6.85799C2.92432 6.74077 3.00871 6.49229 3.20093 6.49229L6.69848 6.46416L7.80495 3.14476C7.87059 2.95254 8.13314 2.95254 8.19409 3.14007Z" fill="white"/>
</svg>
